<?xml version="1.0" encoding="utf-8" standalone="no"?>
<!DOCTYPE svg PUBLIC "-//W3C//DTD SVG 1.1//EN" "http://www.w3.org/Graphics/SVG/1.1/DTD/svg11.dtd">
<svg version="1.1" class="svg-plot" xmlns="http://www.w3.org/2000/svg" width="1297.5pt" height="550.6pt" viewBox="-10 -10 1297.5 550.6" preserveAspectRatio="xMidYMid"><rect x="-10" y="-10" width="1297.5" height="550.6" class="svg-plot-bg"/><g transform="translate(70 33.3)"><g class="svg-plot-group"><rect x="0" y="0" width="1200" height="200" class="svg-plot-axis"/><line x1="0" x2="0" y1="0" y2="200" class="svg-plot-major"/><line x1="600" x2="600" y1="0" y2="200" class="svg-plot-minor"/><line x1="1200" x2="1200" y1="0" y2="200" class="svg-plot-minor"/><line x1="0" x2="1200" y1="100" y2="100" class="svg-plot-major"/><line x1="0" x2="1200" y1="0" y2="0" class="svg-plot-minor"/><line x1="0" x2="1200" y1="200" y2="200" class="svg-plot-minor"/><clipPath id="clip0"><rect x="-0.75" y="-0.75" width="1201.5" height="201.5"/></clipPath><g clip-path="url(#clip0)"><path class="svg-plot-line svg-plot-s0 svg-plot-d0" d="M 0 100 2.86 82.14 4.49 72.16 5.85 64.06 7.07 57 8.16 50.93 9.25 45.09 10.2 40.19 11.16 35.5 11.97 31.67 12.79 28.02 13.61 24.55 14.29 21.82 14.97 19.22 15.65 16.78 16.33 14.49 17.01 12.35 17.55 10.75 18.1 9.26 18.64 7.88 19.18 6.6 19.73 5.44 20.27 4.38 20.68 3.66 21.09 3 21.5 2.41 21.9 1.88 22.31 1.42 22.72 1.02 23.13 0.69 23.54 0.42 23.95 0.22 24.22 0.12 24.49 0.05 24.76 0.01 25.03 0 25.31 0.02 25.58 0.07 25.85 0.14 26.12 0.25 26.53 0.46 26.94 0.74 27.35 1.09 27.76 1.49 28.16 1.97 28.57 2.51 28.98 3.11 29.39 3.78 29.8 4.51 30.34 5.58 30.88 6.76 31.43 8.05 31.97 9.44 32.52 10.95 33.06 12.56 33.74 14.71 34.42 17.02 35.1 19.48 35.78 22.08 36.46 24.83 37.28 28.31 38.1 31.98 38.91 35.83 39.86 40.53 40.82 45.45 41.9 51.3 42.99 57.38 44.22 64.46 45.58 72.57 47.21 82.56 49.66 97.86 52.79 117.44 54.42 127.43 55.78 135.54 57.01 142.62 58.1 148.7 59.18 154.55 60.14 159.47 61.09 164.17 61.9 168.02 62.72 171.69 63.54 175.17 64.22 177.92 64.9 180.52 65.58 182.98 66.26 185.29 66.94 187.44 67.48 189.05 68.03 190.56 68.57 191.95 69.12 193.24 69.66 194.42 70.2 195.49 70.61 196.22 71.02 196.89 71.43 197.49 71.84 198.03 72.24 198.51 72.65 198.91 73.06 199.26 73.47 199.54 73.88 199.75 74.15 199.86 74.42 199.93 74.69 199.98 74.97 200 75.24 199.99 75.51 199.95 75.78 199.88 76.05 199.78 76.46 199.58 76.87 199.31 77.28 198.98 77.69 198.58 78.1 198.12 78.5 197.59 78.91 197 79.32 196.34 79.73 195.62 80.27 194.56 80.82 193.4 81.36 192.12 81.9 190.74 82.45 189.25 82.99 187.65 83.67 185.51 84.35 183.22 85.03 180.78 85.71 178.18 86.39 175.45 87.21 171.98 88.03 168.33 88.84 164.5 89.8 159.81 90.75 154.91 91.84 149.07 92.93 143 94.15 135.94 95.51 127.84 97.14 117.86 99.59 102.56 102.72 82.99 104.35 72.98 105.71 64.86 106.94 57.77 108.03 51.67 109.12 45.81 110.07 40.88 111.02 36.16 111.84 32.3 112.65 28.61 113.47 25.12 114.29 21.82 114.97 19.22 115.65 16.78 116.33 14.49 117.01 12.35 117.55 10.75 118.1 9.26 118.64 7.88 119.18 6.6 119.73 5.44 120.27 4.38 120.68 3.66 121.09 3 121.5 2.41 121.9 1.88 122.31 1.42 122.72 1.02 123.13 0.69 123.54 0.42 123.95 0.22 124.22 0.12 124.49 0.05 124.76 0.01 125.03 0 125.31 0.02 125.58 0.07 125.85 0.14 126.12 0.25 126.53 0.46 126.94 0.74 127.35 1.09 127.76 1.49 128.16 1.97 128.57 2.51 128.98 3.11 129.39 3.78 129.8 4.51 130.34 5.58 130.88 6.76 131.43 8.05 131.97 9.44 132.52 10.95 133.06 12.56 133.74 14.71 134.42 17.02 135.1 19.48 135.78 22.08 136.46 24.83 137.28 28.31 138.1 31.98 138.91 35.83 139.86 40.53 140.82 45.45 141.9 51.3 142.99 57.38 144.22 64.46 145.58 72.57 147.21 82.56 149.66 97.86 152.79 117.44 154.42 127.43 155.78 135.54 157.01 142.62 158.1 148.7 159.18 154.55 160.14 159.47 161.09 164.17 161.9 168.02 162.72 171.69 163.54 175.17 164.22 177.92 164.9 180.52 165.58 182.98 166.26 185.29 166.94 187.44 167.48 189.05 168.03 190.56 168.57 191.95 169.12 193.24 169.66 194.42 170.2 195.49 170.61 196.22 171.02 196.89 171.43 197.49 171.84 198.03 172.24 198.51 172.65 198.91 173.06 199.26 173.47 199.54 173.88 199.75 174.15 199.86 174.42 199.93 174.69 199.98 174.97 200 175.24 199.99 175.51 199.95 175.78 199.88 176.05 199.78 176.46 199.58 176.87 199.31 177.28 198.98 177.69 198.58 178.1 198.12 178.5 197.59 178.91 197 179.32 196.34 179.73 195.62 180.27 194.56 180.82 193.4 181.36 192.12 181.9 190.74 182.45 189.25 182.99 187.65 183.67 185.51 184.35 183.22 185.03 180.78 185.71 178.18 186.39 175.45 187.21 171.98 188.03 168.33 188.84 164.5 189.8 159.81 190.75 154.91 191.84 149.07 192.93 143 194.15 135.94 195.51 127.84 197.14 117.86 199.59 102.56 202.72 82.99 204.35 72.98 205.71 64.86 206.94 57.77 208.03 51.67 209.12 45.81 210.07 40.88 211.02 36.16 211.84 32.3 212.65 28.61 213.47 25.12 214.29 21.82 214.97 19.22 215.65 16.78 216.33 14.49 217.01 12.35 217.55 10.75 218.1 9.26 218.64 7.88 219.18 6.6 219.73 5.44 220.27 4.38 220.68 3.66 221.09 3 221.5 2.41 221.9 1.88 222.31 1.42 222.72 1.02 223.13 0.69 223.54 0.42 223.95 0.22 224.22 0.12 224.49 0.05 224.76 0.01 225.03 0 225.31 0.02 225.58 0.07 225.85 0.14 226.12 0.25 226.53 0.46 226.94 0.74 227.35 1.09 227.76 1.49 228.16 1.97 228.57 2.51 228.98 3.11 229.39 3.78 229.8 4.51 230.34 5.58 230.88 6.76 231.43 8.05 231.97 9.44 232.52 10.95 233.06 12.56 233.74 14.71 234.42 17.02 235.1 19.48 235.78 22.08 236.46 24.83 237.28 28.31 238.1 31.98 238.91 35.83 239.86 40.53 240.82 45.45 241.9 51.3 242.99 57.38 244.22 64.46 245.58 72.57 247.21 82.56 249.66 97.86 252.79 117.44 254.42 127.43 255.78 135.54 257.01 142.62 258.1 148.7 259.18 154.55 260.14 159.47 261.09 164.17 261.9 168.02 262.72 171.69 263.54 175.17 264.22 177.92 264.9 180.52 265.58 182.98 266.26 185.29 266.94 187.44 267.48 189.05 268.03 190.56 268.57 191.95 269.12 193.24 269.66 194.42 270.2 195.49 270.61 196.22 271.02 196.89 271.43 197.49 271.84 198.03 272.24 198.51 272.65 198.91 273.06 199.26 273.47 199.54 273.88 199.75 274.15 199.86 274.42 199.93 274.69 199.98 274.97 200 275.24 199.99 275.51 199.95 275.78 199.88 276.05 199.78 276.46 199.58 276.87 199.31 277.28 198.98 277.69 198.58 278.1 198.12 278.5 197.59 278.91 197 279.32 196.34 279.73 195.62 280.27 194.56 280.82 193.4 281.36 192.12 281.9 190.74 282.45 189.25 282.99 187.65 283.67 185.51 284.35 183.22 285.03 180.78 285.71 178.18 286.39 175.45 287.21 171.98 288.03 168.33 288.84 164.5 289.8 159.81 290.75 154.91 291.84 149.07 292.93 143 294.15 135.94 295.51 127.84 297.14 117.86 299.59 102.56 302.72 82.99 304.35 72.98 305.71 64.86 306.94 57.77 308.03 51.67 309.12 45.81 310.07 40.88 311.02 36.16 311.84 32.3 312.65 28.61 313.47 25.12 314.29 21.82 314.97 19.22 315.65 16.78 316.33 14.49 317.01 12.35 317.55 10.75 318.1 9.26 318.64 7.88 319.18 6.6 319.73 5.44 320.27 4.38 320.68 3.66 321.09 3 321.5 2.41 321.9 1.88 322.31 1.42 322.72 1.02 323.13 0.69 323.54 0.42 323.95 0.22 324.22 0.12 324.49 0.05 324.76 0.01 325.03 0 325.31 0.02 325.58 0.07 325.85 0.14 326.12 0.25 326.53 0.46 326.94 0.74 327.35 1.09 327.76 1.49 328.16 1.97 328.57 2.51 328.98 3.11 329.39 3.78 329.8 4.51 330.34 5.58 330.88 6.76 331.43 8.05 331.97 9.44 332.52 10.95 333.06 12.56 333.74 14.71 334.42 17.02 335.1 19.48 335.78 22.08 336.46 24.83 337.28 28.31 338.1 31.98 338.91 35.83 339.86 40.53 340.82 45.45 341.9 51.3 342.99 57.38 344.22 64.46 345.58 72.57 347.21 82.56 349.66 97.86 352.79 117.44 354.42 127.43 355.78 135.54 357.01 142.62 358.1 148.7 359.18 154.55 360.14 159.47 361.09 164.17 361.9 168.02 362.72 171.69 363.54 175.17 364.22 177.92 364.9 180.52 365.58 182.98 366.26 185.29 366.94 187.44 367.48 189.05 368.03 190.56 368.57 191.95 369.12 193.24 369.66 194.42 370.2 195.49 370.61 196.22 371.02 196.89 371.43 197.49 371.84 198.03 372.24 198.51 372.65 198.91 373.06 199.26 373.47 199.54 373.88 199.75 374.15 199.86 374.42 199.93 374.69 199.98 374.97 200 375.24 199.99 375.51 199.95 375.78 199.88 376.05 199.78 376.46 199.58 376.87 199.31 377.28 198.98 377.69 198.58 378.1 198.12 378.5 197.59 378.91 197 379.32 196.34 379.73 195.62 380.27 194.56 380.82 193.4 381.36 192.12 381.9 190.74 382.45 189.25 382.99 187.65 383.67 185.51 384.35 183.22 385.03 180.78 385.71 178.18 386.39 175.45 387.21 171.98 388.03 168.33 388.84 164.5 389.8 159.81 390.75 154.91 391.84 149.07 392.93 143 394.15 135.94 395.51 127.84 397.14 117.86 399.59 102.56 402.72 82.99 404.35 72.98 405.71 64.86 406.94 57.77 408.03 51.67 409.12 45.81 410.07 40.88 411.02 36.16 411.84 32.3 412.65 28.61 413.47 25.12 414.29 21.82 414.97 19.22 415.65 16.78 416.33 14.49 417.01 12.35 417.55 10.75 418.1 9.26 418.64 7.88 419.18 6.6 419.73 5.44 420.27 4.38 420.68 3.66 421.09 3 421.5 2.41 421.9 1.88 422.31 1.42 422.72 1.02 423.13 0.69 423.54 0.42 423.95 0.22 424.22 0.12 424.49 0.05 424.76 0.01 425.03 0 425.31 0.02 425.58 0.07 425.85 0.14 426.12 0.25 426.53 0.46 426.94 0.74 427.35 1.09 427.76 1.49 428.16 1.97 428.57 2.51 428.98 3.11 429.39 3.78 429.8 4.51 430.34 5.58 430.88 6.76 431.43 8.05 431.97 9.44 432.52 10.95 433.06 12.56 433.74 14.71 434.42 17.02 435.1 19.48 435.78 22.08 436.46 24.83 437.28 28.31 438.1 31.98 438.91 35.83 439.86 40.53 440.82 45.45 441.9 51.3 442.99 57.38 444.22 64.46 445.58 72.57 447.21 82.56 449.66 97.86 452.79 117.44 454.42 127.43 455.78 135.54 457.01 142.62 458.1 148.7 459.18 154.55 460.14 159.47 461.09 164.17 461.9 168.02 462.72 171.69 463.54 175.17 464.22 177.92 464.9 180.52 465.58 182.98 466.26 185.29 466.94 187.44 467.48 189.05 468.03 190.56 468.57 191.95 469.12 193.24 469.66 194.42 470.2 195.49 470.61 196.22 471.02 196.89 471.43 197.49 471.84 198.03 472.24 198.51 472.65 198.91 473.06 199.26 473.47 199.54 473.88 199.75 474.15 199.86 474.42 199.93 474.69 199.98 474.97 200 475.24 199.99 475.51 199.95 475.78 199.88 476.05 199.78 476.46 199.58 476.87 199.31 477.28 198.98 477.69 198.58 478.1 198.12 478.5 197.59 478.91 197 479.32 196.34 479.73 195.62 480.27 194.56 480.82 193.4 481.36 192.12 481.9 190.74 482.45 189.25 482.99 187.65 483.67 185.51 484.35 183.22 485.03 180.78 485.71 178.18 486.39 175.45 487.21 171.98 488.03 168.33 488.84 164.5 489.8 159.81 490.75 154.91 491.84 149.07 492.93 143 494.15 135.94 495.51 127.84 497.14 117.86 499.59 102.56 502.72 82.99 504.35 72.98 505.71 64.86 506.94 57.77 508.03 51.67 509.12 45.81 510.07 40.88 511.02 36.16 511.84 32.3 512.65 28.61 513.47 25.12 514.29 21.82 514.97 19.22 515.65 16.78 516.33 14.49 517.01 12.35 517.55 10.75 518.1 9.26 518.64 7.88 519.18 6.6 519.73 5.44 520.27 4.38 520.68 3.66 521.09 3 521.5 2.41 521.9 1.88 522.31 1.42 522.72 1.02 523.13 0.69 523.54 0.42 523.95 0.22 524.22 0.12 524.49 0.05 524.76 0.01 525.03 0 525.31 0.02 525.58 0.07 525.85 0.14 526.12 0.25 526.53 0.46 526.94 0.74 527.35 1.09 527.76 1.49 528.16 1.97 528.57 2.51 528.98 3.11 529.39 3.78 529.8 4.51 530.34 5.58 530.88 6.76 531.43 8.05 531.97 9.44 532.52 10.95 533.06 12.56 533.74 14.71 534.42 17.02 535.1 19.48 535.78 22.08 536.46 24.83 537.28 28.31 538.1 31.98 538.91 35.83 539.86 40.53 540.82 45.45 541.9 51.3 542.99 57.38 544.22 64.46 545.58 72.57 547.21 82.56 549.66 97.86 552.79 117.44 554.42 127.43 555.78 135.54 557.01 142.62 558.1 148.7 559.18 154.55 560.14 159.47 561.09 164.17 561.9 168.02 562.72 171.69 563.54 175.17 564.22 177.92 564.9 180.52 565.58 182.98 566.26 185.29 566.94 187.44 567.48 189.05 568.03 190.56 568.57 191.95 569.12 193.24 569.66 194.42 570.2 195.49 570.61 196.22 571.02 196.89 571.43 197.49 571.84 198.03 572.24 198.51 572.65 198.91 573.06 199.26 573.47 199.54 573.88 199.75 574.15 199.86 574.42 199.93 574.69 199.98 574.97 200 575.24 199.99 575.51 199.95 575.78 199.88 576.05 199.78 576.46 199.58 576.87 199.31 577.28 198.98 577.69 198.58 578.1 198.12 578.5 197.59 578.91 197 579.32 196.34 579.73 195.62 580.27 194.56 580.82 193.4 581.36 192.12 581.9 190.74 582.45 189.25 582.99 187.65 583.67 185.51 584.35 183.22 585.03 180.78 585.71 178.18 586.39 175.45 587.21 171.98 588.03 168.33 588.84 164.5 589.8 159.81 590.75 154.91 591.84 149.07 592.93 143 594.15 135.94 595.51 127.84 597.14 117.86 599.59 102.56 602.72 82.99 604.35 72.98 605.71 64.86 606.94 57.77 608.03 51.67 609.12 45.81 610.07 40.88 611.02 36.16 611.84 32.3 612.65 28.61 613.47 25.12 614.29 21.82 614.97 19.22 615.65 16.78 616.33 14.49 617.01 12.35 617.55 10.75 618.1 9.26 618.64 7.88 619.18 6.6 619.73 5.44 620.27 4.38 620.68 3.66 621.09 3 621.5 2.41 621.9 1.88 622.31 1.42 622.72 1.02 623.13 0.69 623.54 0.42 623.95 0.22 624.22 0.12 624.49 0.05 624.76 0.01 625.03 0 625.31 0.02 625.58 0.07 625.85 0.14 626.12 0.25 626.53 0.46 626.94 0.74 627.35 1.09 627.76 1.49 628.16 1.97 628.57 2.51 628.98 3.11 629.39 3.78 629.8 4.51 630.34 5.58 630.88 6.76 631.43 8.05 631.97 9.44 632.52 10.95 633.06 12.56 633.74 14.71 634.42 17.02 635.1 19.48 635.78 22.08 636.46 24.83 637.28 28.31 638.1 31.98 638.91 35.83 639.86 40.53 640.82 45.45 641.9 51.3 642.99 57.38 644.22 64.46 645.58 72.57 647.21 82.56 649.66 97.86 652.79 117.44 654.42 127.43 655.78 135.54 657.01 142.62 658.1 148.7 659.18 154.55 660.14 159.47 661.09 164.17 661.9 168.02 662.72 171.69 663.54 175.17 664.22 177.92 664.9 180.52 665.58 182.98 666.26 185.29 666.94 187.44 667.48 189.05 668.03 190.56 668.57 191.95 669.12 193.24 669.66 194.42 670.2 195.49 670.61 196.22 671.02 196.89 671.43 197.49 671.84 198.03 672.24 198.51 672.65 198.91 673.06 199.26 673.47 199.54 673.88 199.75 674.15 199.86 674.42 199.93 674.69 199.98 674.97 200 675.24 199.99 675.51 199.95 675.78 199.88 676.05 199.78 676.46 199.58 676.87 199.31 677.28 198.98 677.69 198.58 678.1 198.12 678.5 197.59 678.91 197 679.32 196.34 679.73 195.62 680.27 194.56 680.82 193.4 681.36 192.12 681.9 190.74 682.45 189.25 682.99 187.65 683.67 185.51 684.35 183.22 685.03 180.78 685.71 178.18 686.39 175.45 687.21 171.98 688.03 168.33 688.84 164.5 689.8 159.81 690.75 154.91 691.84 149.07 692.93 143 694.15 135.94 695.51 127.84 697.14 117.86 699.59 102.56 702.72 82.99 704.35 72.98 705.71 64.86 706.94 57.77 708.03 51.67 709.12 45.81 710.07 40.88 711.02 36.16 711.84 32.3 712.65 28.61 713.47 25.12 714.29 21.82 714.97 19.22 715.65 16.78 716.33 14.49 717.01 12.35 717.55 10.75 718.1 9.26 718.64 7.88 719.18 6.6 719.73 5.44 720.27 4.38 720.68 3.66 721.09 3 721.5 2.41 721.9 1.88 722.31 1.42 722.72 1.02 723.13 0.69 723.54 0.42 723.95 0.22 724.22 0.12 724.49 0.05 724.76 0.01 725.03 0 725.31 0.02 725.58 0.07 725.85 0.14 726.12 0.25 726.53 0.46 726.94 0.74 727.35 1.09 727.76 1.49 728.16 1.97 728.57 2.51 728.98 3.11 729.39 3.78 729.8 4.51 730.34 5.58 730.88 6.76 731.43 8.05 731.97 9.44 732.52 10.95 733.06 12.56 733.74 14.71 734.42 17.02 735.1 19.48 735.78 22.08 736.46 24.83 737.28 28.31 738.1 31.98 738.91 35.83 739.86 40.53 740.82 45.45 741.9 51.3 742.99 57.38 744.22 64.46 745.58 72.57 747.21 82.56 749.66 97.86 752.79 117.44 754.42 127.43 755.78 135.54 757.01 142.62 758.1 148.7 759.18 154.55 760.14 159.47 761.09 164.17 761.9 168.02 762.72 171.69 763.54 175.17 764.22 177.92 764.9 180.52 765.58 182.98 766.26 185.29 766.94 187.44 767.48 189.05 768.03 190.56 768.57 191.95 769.12 193.24 769.66 194.42 770.2 195.49 770.61 196.22 771.02 196.89 771.43 197.49 771.84 198.03 772.24 198.51 772.65 198.91 773.06 199.26 773.47 199.54 773.88 199.75 774.15 199.86 774.42 199.93 774.69 199.98 774.97 200 775.24 199.99 775.51 199.95 775.78 199.88 776.05 199.78 776.46 199.58 776.87 199.31 777.28 198.98 777.69 198.58 778.1 198.12 778.5 197.59 778.91 197 779.32 196.34 779.73 195.62 780.27 194.56 780.82 193.4 781.36 192.12 781.9 190.74 782.45 189.25 782.99 187.65 783.67 185.51 784.35 183.22 785.03 180.78 785.71 178.18 786.39 175.45 787.21 171.98 788.03 168.33 788.84 164.5 789.8 159.81 790.75 154.91 791.84 149.07 792.93 143 794.15 135.94 795.51 127.84 797.14 117.86 799.59 102.56 802.72 82.99 804.35 72.98 805.71 64.86 806.94 57.77 808.03 51.67 809.12 45.81 810.07 40.88 811.02 36.16 811.84 32.3 812.65 28.61 813.47 25.12 814.29 21.82 814.97 19.22 815.65 16.78 816.33 14.49 817.01 12.35 817.55 10.75 818.1 9.26 818.64 7.88 819.18 6.6 819.73 5.44 820.27 4.38 820.68 3.66 821.09 3 821.5 2.41 821.9 1.88 822.31 1.42 822.72 1.02 823.13 0.69 823.54 0.42 823.95 0.22 824.22 0.12 824.49 0.05 824.76 0.01 825.03 0 825.31 0.02 825.58 0.07 825.85 0.14 826.12 0.25 826.53 0.46 826.94 0.74 827.35 1.09 827.76 1.49 828.16 1.97 828.57 2.51 828.98 3.11 829.39 3.78 829.8 4.51 830.34 5.58 830.88 6.76 831.43 8.05 831.97 9.44 832.52 10.95 833.06 12.56 833.74 14.71 834.42 17.02 835.1 19.48 835.78 22.08 836.46 24.83 837.28 28.31 838.1 31.98 838.91 35.83 839.86 40.53 840.82 45.45 841.9 51.3 842.99 57.38 844.22 64.46 845.58 72.57 847.21 82.56 849.66 97.86 852.79 117.44 854.42 127.43 855.78 135.54 857.01 142.62 858.1 148.7 859.18 154.55 860.14 159.47 861.09 164.17 861.9 168.02 862.72 171.69 863.54 175.17 864.22 177.92 864.9 180.52 865.58 182.98 866.26 185.29 866.94 187.44 867.48 189.05 868.03 190.56 868.57 191.95 869.12 193.24 869.66 194.42 870.2 195.49 870.61 196.22 871.02 196.89 871.43 197.49 871.84 198.03 872.24 198.51 872.65 198.91 873.06 199.26 873.47 199.54 873.88 199.75 874.15 199.86 874.42 199.93 874.69 199.98 874.97 200 875.24 199.99 875.51 199.95 875.78 199.88 876.05 199.78 876.46 199.58 876.87 199.31 877.28 198.98 877.69 198.58 878.1 198.12 878.5 197.59 878.91 197 879.32 196.34 879.73 195.62 880.27 194.56 880.82 193.4 881.36 192.12 881.9 190.74 882.45 189.25 882.99 187.65 883.67 185.51 884.35 183.22 885.03 180.78 885.71 178.18 886.39 175.45 887.21 171.98 888.03 168.33 888.84 164.5 889.8 159.81 890.75 154.91 891.84 149.07 892.93 143 894.15 135.94 895.51 127.84 897.14 117.86 899.59 102.56 902.72 82.99 904.35 72.98 905.71 64.86 906.94 57.77 908.03 51.67 909.12 45.81 910.07 40.88 911.02 36.16 911.84 32.3 912.65 28.61 913.47 25.12 914.29 21.82 914.97 19.22 915.65 16.78 916.33 14.49 917.01 12.35 917.55 10.75 918.1 9.26 918.64 7.88 919.18 6.6 919.73 5.44 920.27 4.38 920.68 3.66 921.09 3 921.5 2.41 921.9 1.88 922.31 1.42 922.72 1.02 923.13 0.69 923.54 0.42 923.95 0.22 924.22 0.12 924.49 0.05 924.76 0.01 925.03 0 925.31 0.02 925.58 0.07 925.85 0.14 926.12 0.25 926.53 0.46 926.94 0.74 927.35 1.09 927.76 1.49 928.16 1.97 928.57 2.51 928.98 3.11 929.39 3.78 929.8 4.51 930.34 5.58 930.88 6.76 931.43 8.05 931.97 9.44 932.52 10.95 933.06 12.56 933.74 14.71 934.42 17.02 935.1 19.48 935.78 22.08 936.46 24.83 937.28 28.31 938.1 31.98 938.91 35.83 939.86 40.53 940.82 45.45 941.9 51.3 942.99 57.38 944.22 64.46 945.58 72.57 947.21 82.56 949.66 97.86 952.79 117.44 954.42 127.43 955.78 135.54 957.01 142.62 958.1 148.7 959.18 154.55 960.14 159.47 961.09 164.17 961.9 168.02 962.72 171.69 963.54 175.17 964.22 177.92 964.9 180.52 965.58 182.98 966.26 185.29 966.94 187.44 967.48 189.05 968.03 190.56 968.57 191.95 969.12 193.24 969.66 194.42 970.2 195.49 970.61 196.22 971.02 196.89 971.43 197.49 971.84 198.03 972.24 198.51 972.65 198.91 973.06 199.26 973.47 199.54 973.88 199.75 974.15 199.86 974.42 199.93 974.69 199.98 974.97 200 975.24 199.99 975.51 199.95 975.78 199.88 976.05 199.78 976.46 199.58 976.87 199.31 977.28 198.98 977.69 198.58 978.1 198.12 978.5 197.59 978.91 197 979.32 196.34 979.73 195.62 980.27 194.56 980.82 193.4 981.36 192.12 981.9 190.74 982.45 189.25 982.99 187.65 983.67 185.51 984.35 183.22 985.03 180.78 985.71 178.18 986.39 175.45 987.21 171.98 988.03 168.33 988.84 164.5 989.8 159.81 990.75 154.91 991.84 149.07 992.93 143 994.15 135.94 995.51 127.84 997.14 117.86 999.59 102.56 1002.72 82.99 1004.35 72.98 1005.71 64.86 1006.94 57.77 1008.03 51.67 1009.12 45.81 1010.07 40.88 1011.02 36.16 1011.84 32.3 1012.65 28.61 1013.47 25.12 1014.29 21.82 1014.97 19.22 1015.65 16.78 1016.33 14.49 1017.01 12.35 1017.55 10.75 1018.1 9.26 1018.64 7.88 1019.18 6.6 1019.73 5.44 1020.27 4.38 1020.68 3.66 1021.09 3 1021.5 2.41 1021.9 1.88 1022.31 1.42 1022.72 1.02 1023.13 0.69 1023.54 0.42 1023.95 0.22 1024.22 0.12 1024.49 0.05 1024.76 0.01 1025.03 0 1025.31 0.02 1025.58 0.07 1025.85 0.14 1026.12 0.25 1026.53 0.46 1026.94 0.74 1027.35 1.09 1027.76 1.49 1028.16 1.97 1028.57 2.51 1028.98 3.11 1029.39 3.78 1029.8 4.51 1030.34 5.58 1030.88 6.76 1031.43 8.05 1031.97 9.44 1032.52 10.95 1033.06 12.56 1033.74 14.71 1034.42 17.02 1035.1 19.48 1035.78 22.08 1036.46 24.83 1037.28 28.31 1038.1 31.98 1038.91 35.83 1039.86 40.53 1040.82 45.45 1041.9 51.3 1042.99 57.38 1044.22 64.46 1045.58 72.57 1047.21 82.56 1049.66 97.86 1052.79 117.44 1054.42 127.43 1055.78 135.54 1057.01 142.62 1058.1 148.7 1059.18 154.55 1060.14 159.47 1061.09 164.17 1061.9 168.02 1062.72 171.69 1063.54 175.17 1064.22 177.92 1064.9 180.52 1065.58 182.98 1066.26 185.29 1066.94 187.44 1067.48 189.05 1068.03 190.56 1068.57 191.95 1069.12 193.24 1069.66 194.42 1070.2 195.49 1070.61 196.22 1071.02 196.89 1071.43 197.49 1071.84 198.03 1072.24 198.51 1072.65 198.91 1073.06 199.26 1073.47 199.54 1073.88 199.75 1074.15 199.86 1074.42 199.93 1074.69 199.98 1074.97 200 1075.24 199.99 1075.51 199.95 1075.78 199.88 1076.05 199.78 1076.46 199.58 1076.87 199.31 1077.28 198.98 1077.69 198.58 1078.1 198.12 1078.5 197.59 1078.91 197 1079.32 196.34 1079.73 195.62 1080.27 194.56 1080.82 193.4 1081.36 192.12 1081.9 190.74 1082.45 189.25 1082.99 187.65 1083.67 185.51 1084.35 183.22 1085.03 180.78 1085.71 178.18 1086.39 175.45 1087.21 171.98 1088.03 168.33 1088.84 164.5 1089.8 159.81 1090.75 154.91 1091.84 149.07 1092.93 143 1094.15 135.94 1095.51 127.84 1097.14 117.86 1099.59 102.56 1102.72 82.99 1104.35 72.98 1105.71 64.86 1106.94 57.77 1108.03 51.67 1109.12 45.81 1110.07 40.88 1111.02 36.16 1111.84 32.3 1112.65 28.61 1113.47 25.12 1114.29 21.82 1114.97 19.22 1115.65 16.78 1116.33 14.49 1117.01 12.35 1117.55 10.75 1118.1 9.26 1118.64 7.88 1119.18 6.6 1119.73 5.44 1120.27 4.38 1120.68 3.66 1121.09 3 1121.5 2.41 1121.9 1.88 1122.31 1.42 1122.72 1.02 1123.13 0.69 1123.54 0.42 1123.95 0.22 1124.22 0.12 1124.49 0.05 1124.76 0.01 1125.03 0 1125.31 0.02 1125.58 0.07 1125.85 0.14 1126.12 0.25 1126.53 0.46 1126.94 0.74 1127.35 1.09 1127.76 1.49 1128.16 1.97 1128.57 2.51 1128.98 3.11 1129.39 3.78 1129.8 4.51 1130.34 5.58 1130.88 6.76 1131.43 8.05 1131.97 9.44 1132.52 10.95 1133.06 12.56 1133.74 14.71 1134.42 17.02 1135.1 19.48 1135.78 22.08 1136.46 24.83 1137.28 28.31 1138.1 31.98 1138.91 35.83 1139.86 40.53 1140.82 45.45 1141.9 51.3 1142.99 57.38 1144.22 64.46 1145.58 72.57 1147.21 82.56 1149.66 97.86 1152.79 117.44 1154.42 127.43 1155.78 135.54 1157.01 142.62 1158.1 148.7 1159.18 154.55 1160.14 159.47 1161.09 164.17 1161.9 168.02 1162.72 171.69 1163.54 175.17 1164.22 177.92 1164.9 180.52 1165.58 182.98 1166.26 185.29 1166.94 187.44 1167.48 189.05 1168.03 190.56 1168.57 191.95 1169.12 193.24 1169.66 194.42 1170.2 195.49 1170.61 196.22 1171.02 196.89 1171.43 197.49 1171.84 198.03 1172.24 198.51 1172.65 198.91 1173.06 199.26 1173.47 199.54 1173.88 199.75 1174.15 199.86 1174.42 199.93 1174.69 199.98 1174.97 200 1175.24 199.99 1175.51 199.95 1175.78 199.88 1176.05 199.78 1176.46 199.58 1176.87 199.31 1177.28 198.98 1177.69 198.58 1178.1 198.12 1178.5 197.59 1178.91 197 1179.32 196.34 1179.73 195.62 1180.27 194.56 1180.82 193.4 1181.36 192.12 1181.9 190.74 1182.45 189.25 1182.99 187.65 1183.67 185.51 1184.35 183.22 1185.03 180.78 1185.71 178.18 1186.39 175.45 1187.21 171.98 1188.03 168.33 1188.84 164.5 1189.8 159.81 1190.75 154.91 1191.84 149.07 1192.93 143 1194.15 135.94 1195.51 127.84 1197.14 117.86 1199.59 102.56 1199.86 100.85"/></g></g></g><g transform="translate(70 295.6)"><g class="svg-plot-group"><rect x="0" y="0" width="1200" height="200" class="svg-plot-axis"/><line x1="0" x2="0" y1="0" y2="200" class="svg-plot-major"/><line x1="600" x2="600" y1="0" y2="200" class="svg-plot-minor"/><line x1="1200" x2="1200" y1="0" y2="200" class="svg-plot-minor"/><line x1="0" x2="1200" y1="100" y2="100" class="svg-plot-major"/><line x1="0" x2="1200" y1="0" y2="0" class="svg-plot-minor"/><line x1="0" x2="1200" y1="200" y2="200" class="svg-plot-minor"/><clipPath id="clip1"><rect x="-0.75" y="-0.75" width="1201.5" height="201.5"/></clipPath><g clip-path="url(#clip1)"><path class="svg-plot-line svg-plot-s0 svg-plot-d0" d="M 0 100 2.86 64.37 4.49 44.46 5.85 28.3 7.07 14.2 8.16 2.09 8.3 0.61 8.44 0 41.63 0 41.9 2.83 42.99 14.97 44.22 29.09 45.58 45.28 47.21 65.21 49.66 95.74 52.79 134.79 54.42 154.72 55.78 170.91 57.01 185.03 58.1 197.17 58.37 200 91.56 200 91.7 199.39 92.79 187.34 94.01 173.29 95.37 157.18 97.01 137.3 99.32 108.53 102.72 66.05 104.35 46.1 105.71 29.89 106.94 15.74 108.03 3.58 108.3 0.61 108.44 0 141.63 0 141.9 2.83 142.99 14.97 144.22 29.09 145.58 45.28 147.21 65.21 149.66 95.74 152.79 134.79 154.42 154.72 155.78 170.91 157.01 185.03 158.1 197.17 158.37 200 191.56 200 191.7 199.39 192.79 187.34 194.01 173.29 195.37 157.18 197.01 137.3 199.32 108.53 202.72 66.05 204.35 46.1 205.71 29.89 206.94 15.74 208.03 3.58 208.3 0.61 208.44 0 241.63 0 241.9 2.83 242.99 14.97 244.22 29.09 245.58 45.28 247.21 65.21 249.66 95.74 252.79 134.79 254.42 154.72 255.78 170.91 257.01 185.03 258.1 197.17 258.37 200 291.56 200 291.7 199.39 292.79 187.34 294.01 173.29 295.37 157.18 297.01 137.3 299.32 108.53 302.72 66.05 304.35 46.1 305.71 29.89 306.94 15.74 308.03 3.58 308.3 0.61 308.44 0 341.63 0 341.9 2.83 342.99 14.97 344.22 29.09 345.58 45.28 347.21 65.21 349.66 95.74 352.79 134.79 354.42 154.72 355.78 170.91 357.01 185.03 358.1 197.17 358.37 200 391.56 200 391.7 199.39 392.79 187.34 394.01 173.29 395.37 157.18 397.01 137.3 399.32 108.53 402.72 66.05 404.35 46.1 405.71 29.89 406.94 15.74 408.03 3.58 408.3 0.61 408.44 0 441.63 0 441.9 2.83 442.99 14.97 444.22 29.09 445.58 45.28 447.21 65.21 449.66 95.74 452.79 134.79 454.42 154.72 455.78 170.91 457.01 185.03 458.1 197.17 458.37 200 491.56 200 491.7 199.39 492.79 187.34 494.01 173.29 495.37 157.18 497.01 137.3 499.32 108.53 502.72 66.05 504.35 46.1 505.71 29.89 506.94 15.74 508.03 3.58 508.3 0.61 508.44 0 541.63 0 541.9 2.83 542.99 14.97 544.22 29.09 545.58 45.28 547.21 65.21 549.66 95.74 552.79 134.79 554.42 154.72 555.78 170.91 557.01 185.03 558.1 197.17 558.37 200 591.56 200 591.7 199.39 592.79 187.34 594.01 173.29 595.37 157.18 597.01 137.3 599.32 108.53 602.72 66.05 604.35 46.1 605.71 29.89 606.94 15.74 608.03 3.58 608.3 0.61 608.44 0 641.63 0 641.9 2.83 642.99 14.97 644.22 29.09 645.58 45.28 647.21 65.21 649.66 95.74 652.79 134.79 654.42 154.72 655.78 170.91 657.01 185.03 658.1 197.17 658.37 200 691.56 200 691.7 199.39 692.79 187.34 694.01 173.29 695.37 157.18 697.01 137.3 699.32 108.53 702.72 66.05 704.35 46.1 705.71 29.89 706.94 15.74 708.03 3.58 708.3 0.61 708.44 0 741.63 0 741.9 2.83 742.99 14.97 744.22 29.09 745.58 45.28 747.21 65.21 749.66 95.74 752.79 134.79 754.42 154.72 755.78 170.91 757.01 185.03 758.1 197.17 758.37 200 791.56 200 791.7 199.39 792.79 187.34 794.01 173.29 795.37 157.18 797.01 137.3 799.32 108.53 802.72 66.05 804.35 46.1 805.71 29.89 806.94 15.74 808.03 3.58 808.3 0.61 808.44 0 841.63 0 841.9 2.83 842.99 14.97 844.22 29.09 845.58 45.28 847.21 65.21 849.66 95.74 852.79 134.79 854.42 154.72 855.78 170.91 857.01 185.03 858.1 197.17 858.37 200 891.56 200 891.7 199.39 892.79 187.34 894.01 173.29 895.37 157.18 897.01 137.3 899.32 108.53 902.72 66.05 904.35 46.1 905.71 29.89 906.94 15.74 908.03 3.58 908.3 0.61 908.44 0 941.63 0 941.9 2.83 942.99 14.97 944.22 29.09 945.58 45.28 947.21 65.21 949.66 95.74 952.79 134.79 954.42 154.72 955.78 170.91 957.01 185.03 958.1 197.17 958.37 200 991.56 200 991.7 199.39 992.79 187.34 994.01 173.29 995.37 157.18 997.01 137.3 999.32 108.53 1002.72 66.05 1004.35 46.1 1005.71 29.89 1006.94 15.74 1008.03 3.58 1008.3 0.61 1008.44 0 1041.63 0 1041.9 2.83 1042.99 14.97 1044.22 29.09 1045.58 45.28 1047.21 65.21 1049.66 95.74 1052.79 134.79 1054.42 154.72 1055.78 170.91 1057.01 185.03 1058.1 197.17 1058.37 200 1091.56 200 1091.7 199.39 1092.79 187.34 1094.01 173.29 1095.37 157.18 1097.01 137.3 1099.32 108.53 1102.72 66.05 1104.35 46.1 1105.71 29.89 1106.94 15.74 1108.03 3.58 1108.3 0.61 1108.44 0 1141.63 0 1141.9 2.83 1142.99 14.97 1144.22 29.09 1145.58 45.28 1147.21 65.21 1149.66 95.74 1152.79 134.79 1154.42 154.72 1155.78 170.91 1157.01 185.03 1158.1 197.17 1158.37 200 1191.56 200 1191.7 199.39 1192.79 187.34 1194.01 173.29 1195.37 157.18 1197.01 137.3 1199.32 108.53 1199.86 101.71"/></g></g></g><g transform="translate(70 33.3)"><g class="svg-plot-group"><line x1="0" x2="0" y1="200" y2="204" class="svg-plot-tick"/><line x1="600" x2="600" y1="200" y2="204" class="svg-plot-tick"/><line x1="1200" x2="1200" y1="200" y2="204" class="svg-plot-tick"/><line x1="0" x2="-4" y1="100" y2="100" class="svg-plot-tick"/><line x1="0" x2="-4" y1="0" y2="0" class="svg-plot-tick"/><line x1="0" x2="-4" y1="200" y2="200" class="svg-plot-tick"/><text class="svg-plot-title" x="600" y="-13.1">Input audio</text><text class="svg-plot-label svg-plot-t" x="0" y="0" transform="rotate(-90) translate(-99 -65)">Value</text><text class="svg-plot-value" style="text-anchor:end" x="-9" y="199">-0.999998</text><text class="svg-plot-value" style="text-anchor:end" x="-9" y="-1">0.999998</text><text class="svg-plot-value" style="text-anchor:end" x="-9" y="99">0</text><text class="svg-plot-value" x="1200" y="213">0.2</text><text class="svg-plot-value" x="600" y="213">0.1</text><text class="svg-plot-value" x="0" y="213">0</text></g></g><g transform="translate(70 295.6)"><g class="svg-plot-group"><line x1="0" x2="0" y1="200" y2="204" class="svg-plot-tick"/><line x1="600" x2="600" y1="200" y2="204" class="svg-plot-tick"/><line x1="1200" x2="1200" y1="200" y2="204" class="svg-plot-tick"/><line x1="0" x2="-4" y1="100" y2="100" class="svg-plot-tick"/><line x1="0" x2="-4" y1="0" y2="0" class="svg-plot-tick"/><line x1="0" x2="-4" y1="200" y2="200" class="svg-plot-tick"/><text class="svg-plot-title" x="600" y="-13.1">Output audio</text><text class="svg-plot-label svg-plot-t" x="0" y="0" transform="rotate(-90) translate(-99 -64)">Value</text><text class="svg-plot-value" style="text-anchor:end" x="-9" y="199">-0.501187</text><text class="svg-plot-value" style="text-anchor:end" x="-9" y="-1">0.501187</text><text class="svg-plot-value" style="text-anchor:end" x="-9" y="99">0</text><text class="svg-plot-label svg-plot-t" x="600" y="229">Time (s)</text><text class="svg-plot-value" x="1200" y="213">0.2</text><text class="svg-plot-value" x="600" y="213">0.1</text><text class="svg-plot-value" x="0" y="213">0</text></g></g><defs><g id="svg-plot-marker0" class="svg-plot-marker"><circle cx="0" cy="0" r="1" stroke="none"/></g><g id="svg-plot-marker1" class="svg-plot-marker"><path d="M0 0.9 -0.9 0 0 -0.9 0.9 0Z" fill="#FFFA" stroke-linejoin="miter" stroke-width="0.5"/></g><g id="svg-plot-marker2" class="svg-plot-marker"><path fill="none" d="M0 -1.2 0 1.2 M -1.2 0 1.2 0" stroke-width="0.6"/></g><g id="svg-plot-marker3" class="svg-plot-marker"><circle cx="0" cy="0" fill="#FFFA" r="0.82" stroke-width="0.55"/></g><g id="svg-plot-marker4" class="svg-plot-marker"><path stroke="none" d="M0 -1.25 1.25 0.9 -1.25 0.9Z"/></g><mask id="svg-plot-hatch1"><rect x="-1807" y="-1807" width="3614" height="3614" fill="url(#svg-plot-hatch1-pattern)" style="transform:rotate(-50deg)"/></mask><pattern patternUnits="userSpaceOnUse" id="svg-plot-hatch1-pattern" class="svg-plot-hatch" x="0" y="0" width="10" height="3"><line x1="-1" x2="11" y1="1.5" y2="1.5" stroke="#FFF" fill="none"/><rect x="-1" y="-1" width="12" height="12" fill="#FFF2" stroke="none"/></pattern><mask id="svg-plot-hatch2"><rect x="-1807" y="-1807" width="3614" height="3614" fill="url(#svg-plot-hatch2-pattern)" style="transform:rotate(30deg)"/></mask><pattern patternUnits="userSpaceOnUse" id="svg-plot-hatch2-pattern" class="svg-plot-hatch" x="0" y="0" width="10" height="2.4"><line x1="-1" x2="11" y1="1.2" y2="1.2" stroke="#FFF" fill="none"/><rect x="-1" y="-1" width="12" height="12" fill="#FFF2" stroke="none"/></pattern><mask id="svg-plot-hatch3"><rect x="-1807" y="-1807" width="3614" height="3614" fill="url(#svg-plot-hatch3-pattern)" style="transform:rotate(8deg)"/><rect x="-1807" y="-1807" width="3614" height="3614" fill="url(#svg-plot-hatch3-pattern)" style="transform:rotate(93deg)"/></mask><pattern patternUnits="userSpaceOnUse" id="svg-plot-hatch3-pattern" class="svg-plot-hatch" x="0" y="0" width="10" height="3"><line x1="-1" x2="11" y1="1.5" y2="1.5" stroke="#FFF" fill="none"/><rect x="-1" y="-1" width="12" height="12" fill="#FFF2" stroke="none"/></pattern></defs><style>.svg-plot{stroke-linecap:butt;stroke-linejoin:round;}.svg-plot-bg{fill:#FFF;stroke:none;}.svg-plot-axis{stroke:none;fill:#FFFFFFD9;}.svg-plot-legend{stroke:none;fill:#FFFFFFE4;}.svg-plot-line{stroke:blue;fill:none;stroke-width:1.5px;stroke-linejoin:round;}.svg-plot-fill{stroke:none;opacity:0.28;}.svg-plot-dot .svg-plot-fill{opacity:0.5;}.svg-plot-major{stroke:#000;stroke-width:1px;stroke-linecap:square;fill:none;}.svg-plot-minor{stroke:#0000004D;stroke-width:0.5px;stroke-dasharray:0.5 1.5;stroke-linecap:round;fill:none;}.svg-plot-tick{stroke:#000;fill:none;stroke-width:1px;stroke-linecap:butt;}.svg-plot-value,.svg-plot-label,.svg-plot-title{font-family:Arial,sans-serif;fill:#000;stroke:#FFFFFF48;stroke-width:2.5px;paint-order:stroke fill;text-anchor:middle;dominant-baseline:central;alignment-baseline:baseline;}.svg-plot-label{font-size:12px;}.svg-plot-value{font-size:10px;}.svg-plot-title{font-size:13px;}.svg-plot-hatch{stroke:#FFF;stroke-width:1px;}.svg-plot-marker{transform:scale(3.25);}.svg-plot-s{stroke:#000;}.svg-plot-f,.svg-plot-t{fill:#000;}.svg-plot-s0{stroke:#0073E6}.svg-plot-f0,.svg-plot-t0{fill:#0073E6}.svg-plot-s1{stroke:#CC0000}.svg-plot-f1,.svg-plot-t1{fill:#CC0000}.svg-plot-s2{stroke:#00B300}.svg-plot-f2,.svg-plot-t2{fill:#00B300}.svg-plot-s3{stroke:#806600}.svg-plot-f3,.svg-plot-t3{fill:#806600}.svg-plot-s4{stroke:#E69900}.svg-plot-f4,.svg-plot-t4{fill:#E69900}.svg-plot-s5{stroke:#CC00CC}.svg-plot-f5,.svg-plot-t5{fill:#CC00CC}.svg-plot-d0{stroke-width:1.35px}.svg-plot-d1{stroke-dasharray:1.8 1.8}.svg-plot-d2{stroke-dasharray:4.2 2.4}.svg-plot-d3{stroke-dasharray:7.5 6}.svg-plot-d4{stroke-dasharray:6 1.5 1.5 1.5 1.5 1.5}.svg-plot-d5{stroke-dasharray:15 4.5}.svg-plot-d6{stroke-dasharray:6 3 1.5 3}.svg-plot-h0{opacity:0.14}.svg-plot-h1{mask:url(#svg-plot-hatch1)}.svg-plot-h2{mask:url(#svg-plot-hatch2)}.svg-plot-h3{mask:url(#svg-plot-hatch3)}#svg-plot-hatch2-pattern{stroke-width:0.9px}#svg-plot-hatch3-pattern{stroke-width:0.7px}</style></svg>